#Comment line ignore any data following # character 
#Hierarchical Translation and Rotation (.htr) file 
[Header]	
#Header keywords are followed by a single value 
FileType HTR		#Single word string
DataType HTRS		#Translation followed by rotation and scale data
FileVersion 1		#integer
NumSegments 84		#integer
NumFrames 2		#integer
DataFrameRate 30		#integer, data frame rate in this file
EulerRotationOrder ZYX
CalibrationUnits mm
RotationUnits Degrees
GlobalAxisofGravity Y
BoneLengthAxis Y
ScaleFactor 1.00
[SegmentNames&Hierarchy]
#CHILD	PARENT
MASTER GLOBAL
root MASTER
chest root
L_mid_tent01 root
R_mid_tent01 root
spine01 root
Bip01_Neck chest
L_humerus chest
R_humerus chest
weapon_bone chest
Bip01_Head Bip01_Neck
eye_left_bone Bip01_Head
eye_right_bone Bip01_Head
L_forearm L_humerus
L_front_hand L_forearm
L_weapon_bone L_forearm
L_front_hand01_01 L_front_hand
L_front_hand02_01 L_front_hand
L_front_hand03_01 L_front_hand
L_front_hand01_02 L_front_hand01_01
L_front_hand02_02 L_front_hand02_01
L_front_hand03_02 L_front_hand03_01
R_forearm R_humerus
R_front_hand R_forearm
R_weapon_bone R_forearm
R_front_hand01_01 R_front_hand
R_front_hand02_01 R_front_hand
R_front_hand03_01 R_front_hand
R_front_hand01_02 R_front_hand01_01
R_front_hand02_02 R_front_hand02_01
R_front_hand03_02 R_front_hand03_01
null_rope01_connect L_mid_tent01
Rope1_Seg01 null_rope01_connect
Rope1_Seg02 Rope1_Seg01
Rope1_Seg03 Rope1_Seg02
Rope1_Seg04 Rope1_Seg03
Rope1_Seg05 Rope1_Seg04
Rope1_Seg06 Rope1_Seg05
Rope1_Seg07 Rope1_Seg06
Rope1_Seg09 Rope1_Seg07
L_mid_hand01 Rope1_Seg09
L_mid_hand02 Rope1_Seg09
L_mid_hand03 Rope1_Seg09
null_rope02_connect R_mid_tent01
Rope2_Seg01 null_rope02_connect
Rope2_Seg02 Rope2_Seg01
Rope2_Seg03 Rope2_Seg02
Rope2_Seg04 Rope2_Seg03
Rope2_Seg05 Rope2_Seg04
Rope2_Seg06 Rope2_Seg05
Rope2_Seg07 Rope2_Seg06
Rope2_Seg09 Rope2_Seg07
R_mid_hand01 Rope2_Seg09
R_mid_hand02 Rope2_Seg09
R_mid_hand03 Rope2_Seg09
spine02 spine01
spine03 spine02
pelvis spine03
null_rope03_connect pelvis
null_rope04_connect pelvis
Rope3_Seg01 null_rope03_connect
Rope3_Seg02 Rope3_Seg01
Rope3_Seg03 Rope3_Seg02
Rope3_Seg04 Rope3_Seg03
Rope3_Seg05 Rope3_Seg04
Rope3_Seg06 Rope3_Seg05
Rope3_Seg07 Rope3_Seg06
Rope3_Seg08 Rope3_Seg07
Rope3_Seg09 Rope3_Seg08
R_rear_hand01 Rope3_Seg09
R_rear_hand02 Rope3_Seg09
R_rear_hand03 Rope3_Seg09
Rope4_Seg01 null_rope04_connect
Rope4_Seg02 Rope4_Seg01
Rope4_Seg03 Rope4_Seg02
Rope4_Seg04 Rope4_Seg03
Rope4_Seg05 Rope4_Seg04
Rope4_Seg06 Rope4_Seg05
Rope4_Seg07 Rope4_Seg06
Rope4_Seg08 Rope4_Seg07
Rope4_Seg09 Rope4_Seg08
L_rear_hand01 Rope4_Seg09
L_rear_hand02 Rope4_Seg09
L_rear_hand03 Rope4_Seg09
[BasePosition]
#SegmentName Tx, Ty, Tz, Rx, Ry, Rz, BoneLength
MASTER 0.000000 0.000000 0.000000 -90.000000 0.000000 0.000000 10.000000 
root 0.000000 0.000000 0.000000 0.000000 0.000000 0.000000 10.000000 
chest 0.000000 0.000000 0.000000 0.000000 0.000000 0.000000 10.000000 
L_mid_tent01 0.000000 0.000000 0.000000 0.000000 0.000000 0.000000 10.000000 
R_mid_tent01 0.000000 0.000000 0.000000 0.000000 0.000000 0.000000 10.000000 
spine01 0.000000 0.000000 0.000000 0.000000 0.000000 0.000000 10.000000 
Bip01_Neck 0.000000 0.000000 0.000000 0.000000 0.000000 0.000000 10.000000 
L_humerus 0.000000 0.000000 0.000000 0.000000 0.000000 0.000000 10.000000 
R_humerus 0.000000 0.000000 0.000000 0.000000 0.000000 0.000000 10.000000 
weapon_bone 0.000000 0.000000 0.000000 0.000000 0.000000 0.000000 10.000000 
Bip01_Head 0.000000 0.000000 0.000000 0.000000 0.000000 0.000000 10.000000 
eye_left_bone 0.000000 0.000000 0.000000 0.000000 0.000000 0.000000 10.000000 
eye_right_bone 0.000000 0.000000 0.000000 0.000000 0.000000 0.000000 10.000000 
L_forearm 0.000000 0.000000 0.000000 0.000000 0.000000 0.000000 10.000000 
L_front_hand 0.000000 0.000000 0.000000 0.000000 0.000000 0.000000 10.000000 
L_weapon_bone 0.000000 0.000000 0.000000 0.000000 0.000000 0.000000 10.000000 
L_front_hand01_01 0.000000 0.000000 0.000000 0.000000 0.000000 0.000000 10.000000 
L_front_hand02_01 0.000000 0.000000 0.000000 0.000000 0.000000 0.000000 10.000000 
L_front_hand03_01 0.000000 0.000000 0.000000 0.000000 0.000000 0.000000 10.000000 
L_front_hand01_02 0.000000 0.000000 0.000000 0.000000 0.000000 0.000000 10.000000 
L_front_hand02_02 0.000000 0.000000 0.000000 0.000000 0.000000 0.000000 10.000000 
L_front_hand03_02 0.000000 0.000000 0.000000 0.000000 0.000000 0.000000 10.000000 
R_forearm 0.000000 0.000000 0.000000 0.000000 0.000000 0.000000 10.000000 
R_front_hand 0.000000 0.000000 0.000000 0.000000 0.000000 0.000000 10.000000 
R_weapon_bone 0.000000 0.000000 0.000000 0.000000 0.000000 0.000000 10.000000 
R_front_hand01_01 0.000000 0.000000 0.000000 0.000000 0.000000 0.000000 10.000000 
R_front_hand02_01 0.000000 0.000000 0.000000 0.000000 0.000000 0.000000 10.000000 
R_front_hand03_01 0.000000 0.000000 0.000000 0.000000 0.000000 0.000000 10.000000 
R_front_hand01_02 0.000000 0.000000 0.000000 0.000000 0.000000 0.000000 10.000000 
R_front_hand02_02 0.000000 0.000000 0.000000 0.000000 0.000000 0.000000 10.000000 
R_front_hand03_02 0.000000 0.000000 0.000000 0.000000 0.000000 0.000000 10.000000 
null_rope01_connect 0.000000 0.000000 0.000000 0.000000 0.000000 0.000000 10.000000 
Rope1_Seg01 0.000000 0.000000 0.000000 0.000000 0.000000 0.000000 10.000000 
Rope1_Seg02 0.000000 0.000000 0.000000 0.000000 0.000000 0.000000 10.000000 
Rope1_Seg03 0.000000 0.000000 0.000000 0.000000 0.000000 0.000000 10.000000 
Rope1_Seg04 0.000000 0.000000 0.000000 0.000000 0.000000 0.000000 10.000000 
Rope1_Seg05 0.000000 0.000000 0.000000 0.000000 0.000000 0.000000 10.000000 
Rope1_Seg06 0.000000 0.000000 0.000000 0.000000 0.000000 0.000000 10.000000 
Rope1_Seg07 0.000000 0.000000 0.000000 0.000000 0.000000 0.000000 10.000000 
Rope1_Seg09 0.000000 0.000000 0.000000 0.000000 0.000000 0.000000 10.000000 
L_mid_hand01 0.000000 0.000000 0.000000 0.000000 0.000000 0.000000 10.000000 
L_mid_hand02 0.000000 0.000000 0.000000 0.000000 0.000000 0.000000 10.000000 
L_mid_hand03 0.000000 0.000000 0.000000 0.000000 0.000000 0.000000 10.000000 
null_rope02_connect 0.000000 0.000000 0.000000 0.000000 0.000000 0.000000 10.000000 
Rope2_Seg01 0.000000 0.000000 0.000000 0.000000 0.000000 0.000000 10.000000 
Rope2_Seg02 0.000000 0.000000 0.000000 0.000000 0.000000 0.000000 10.000000 
Rope2_Seg03 0.000000 0.000000 0.000000 0.000000 0.000000 0.000000 10.000000 
Rope2_Seg04 0.000000 0.000000 0.000000 0.000000 0.000000 0.000000 10.000000 
Rope2_Seg05 0.000000 0.000000 0.000000 0.000000 0.000000 0.000000 10.000000 
Rope2_Seg06 0.000000 0.000000 0.000000 0.000000 0.000000 0.000000 10.000000 
Rope2_Seg07 0.000000 0.000000 0.000000 0.000000 0.000000 0.000000 10.000000 
Rope2_Seg09 0.000000 0.000000 0.000000 0.000000 0.000000 0.000000 10.000000 
R_mid_hand01 0.000000 0.000000 0.000000 0.000000 0.000000 0.000000 10.000000 
R_mid_hand02 0.000000 0.000000 0.000000 0.000000 0.000000 0.000000 10.000000 
R_mid_hand03 0.000000 0.000000 0.000000 0.000000 0.000000 0.000000 10.000000 
spine02 0.000000 0.000000 0.000000 0.000000 0.000000 0.000000 10.000000 
spine03 0.000000 0.000000 0.000000 0.000000 0.000000 0.000000 10.000000 
pelvis 0.000000 0.000000 0.000000 0.000000 0.000000 0.000000 10.000000 
null_rope03_connect 0.000000 0.000000 0.000000 0.000000 0.000000 0.000000 10.000000 
null_rope04_connect 0.000000 0.000000 0.000000 0.000000 0.000000 0.000000 10.000000 
Rope3_Seg01 0.000000 0.000000 0.000000 0.000000 0.000000 0.000000 10.000000 
Rope3_Seg02 0.000000 0.000000 0.000000 0.000000 0.000000 0.000000 10.000000 
Rope3_Seg03 0.000000 0.000000 0.000000 0.000000 0.000000 0.000000 10.000000 
Rope3_Seg04 0.000000 0.000000 0.000000 0.000000 0.000000 0.000000 10.000000 
Rope3_Seg05 0.000000 0.000000 0.000000 0.000000 0.000000 0.000000 10.000000 
Rope3_Seg06 0.000000 0.000000 0.000000 0.000000 0.000000 0.000000 10.000000 
Rope3_Seg07 0.000000 0.000000 0.000000 0.000000 0.000000 0.000000 10.000000 
Rope3_Seg08 0.000000 0.000000 0.000000 0.000000 0.000000 0.000000 10.000000 
Rope3_Seg09 0.000000 0.000000 0.000000 0.000000 0.000000 0.000000 10.000000 
R_rear_hand01 0.000000 0.000000 0.000000 0.000000 0.000000 0.000000 10.000000 
R_rear_hand02 0.000000 0.000000 0.000000 0.000000 0.000000 0.000000 10.000000 
R_rear_hand03 0.000000 0.000000 0.000000 0.000000 0.000000 0.000000 10.000000 
Rope4_Seg01 0.000000 0.000000 0.000000 0.000000 0.000000 0.000000 10.000000 
Rope4_Seg02 0.000000 0.000000 0.000000 0.000000 0.000000 0.000000 10.000000 
Rope4_Seg03 0.000000 0.000000 0.000000 0.000000 0.000000 0.000000 10.000000 
Rope4_Seg04 0.000000 0.000000 0.000000 0.000000 0.000000 0.000000 10.000000 
Rope4_Seg05 0.000000 0.000000 0.000000 0.000000 0.000000 0.000000 10.000000 
Rope4_Seg06 0.000000 0.000000 0.000000 0.000000 0.000000 0.000000 10.000000 
Rope4_Seg07 0.000000 0.000000 0.000000 0.000000 0.000000 0.000000 10.000000 
Rope4_Seg08 0.000000 0.000000 0.000000 0.000000 0.000000 0.000000 10.000000 
Rope4_Seg09 0.000000 0.000000 0.000000 0.000000 0.000000 0.000000 10.000000 
L_rear_hand01 0.000000 0.000000 0.000000 0.000000 0.000000 0.000000 10.000000 
L_rear_hand02 0.000000 0.000000 0.000000 0.000000 0.000000 0.000000 10.000000 
L_rear_hand03 0.000000 0.000000 0.000000 0.000000 0.000000 0.000000 10.000000 
#Beginning of Data. Separated by tabs
#Fr	Tx	Ty	Tz	Rx	Ry	Rz	SF
[MASTER]
21 0.000000 0.000000 0.000000 0.001660 0.001660 0.001660 0.000000
22 0.000000 0.000000 0.000000 0.001660 0.001660 0.001660 0.000000
[root]
21 -31.698763 -56.055935 1501.991821 -98.350014 -40.606133 -86.801941 1503.371704
22 -30.926439 -56.250393 1501.900391 -96.605698 -40.104191 -86.881554 1503.271606
[chest]
21 -84.512650 -34.090519 0.000000 -11.378062 -18.025572 169.998718 91.129311
22 -84.512650 -34.090519 0.000000 -10.692686 -15.996387 170.715454 91.129311
[L_mid_tent01]
21 27.299179 22.179106 -249.918701 3.862628 36.229195 81.347603 252.381699
22 27.299181 22.179106 -249.918701 3.862628 36.229202 81.347610 252.381699
[R_mid_tent01]
21 23.228794 24.509907 226.238495 160.432037 -47.061241 87.899765 228.744751
22 23.228794 24.509907 226.238495 160.432037 -47.061241 87.899765 228.744751
[spine01]
21 -0.361383 -0.195265 0.000000 0.002062 0.001122 32.879829 0.410763
22 -0.361383 -0.195265 0.000000 0.002062 0.001122 32.879829 0.410763
[Bip01_Neck]
21 165.484543 71.581718 0.000119 176.643677 -1.657967 43.431911 180.302734
22 165.484543 71.581718 0.000119 176.643677 -1.657967 43.431911 180.302734
[L_humerus]
21 -13.983130 -135.272980 -120.471481 167.917419 57.576984 -94.376350 181.680161
22 -13.983130 -135.272980 -120.471481 163.633286 64.519554 -101.863457 181.680161
[R_humerus]
21 -13.983309 -135.273102 125.287651 -167.969223 -32.803234 -102.799019 184.909012
22 -13.983309 -135.273102 125.287651 -168.590927 -49.904488 -99.101570 184.909012
[weapon_bone]
21 235.964890 -300.705902 0.000000 0.000000 -89.951546 -128.212341 382.234833
22 235.964890 -300.705902 0.000000 0.000000 -89.951546 -128.212341 382.234833
[Bip01_Head]
21 213.329941 186.033371 7.671914 27.508402 5.760996 -43.839211 283.155334
22 213.330994 186.030457 7.709484 23.673429 5.502312 -43.845943 283.155212
[eye_left_bone]
21 -24.626970 125.451866 -64.772606 0.000000 -90.000000 -99.840431 143.318359
22 -24.626970 125.451866 -64.772606 0.000000 -90.000000 -99.840431 143.318359
[eye_right_bone]
21 -24.626970 125.451866 64.327362 0.000000 -89.965736 80.156380 143.117676
22 -24.626970 125.451866 64.327362 0.000000 -89.965736 80.156380 143.117676
[L_forearm]
21 322.776093 0.000000 -0.000119 0.000396 -0.002314 -109.419975 322.776093
22 322.776093 0.000000 -0.000119 0.000396 -0.002314 -109.419975 322.776093
[L_front_hand]
21 241.149185 -0.042021 -3.300071 -178.667953 -1.835447 -27.422342 241.171753
22 241.149185 -0.042021 -3.300071 -178.667953 -1.835447 -27.422350 241.171753
[L_weapon_bone]
21 156.183838 0.000000 0.000000 0.000014 0.000007 0.000001 156.183838
22 156.183838 0.000000 0.000000 0.000014 0.000007 0.000001 156.183838
[L_front_hand01_01]
21 86.095154 20.947098 -0.655860 -0.306535 -0.513312 68.646957 88.609184
22 86.095154 20.947098 -0.655860 -0.314053 -0.508434 69.417068 88.609184
[L_front_hand02_01]
21 86.935165 -11.437475 24.513514 145.004044 -56.473930 -50.323578 91.046425
22 86.935165 -11.437475 24.513514 145.968994 -56.908298 -51.478970 91.046425
[L_front_hand03_01]
21 86.637497 -14.123976 -20.424902 -145.151382 54.687630 -52.198425 90.126129
22 86.637497 -14.123976 -20.424902 -146.056091 55.123112 -53.303532 90.126129
[L_front_hand01_02]
21 71.020905 -0.000179 0.000030 0.000317 -0.002326 -105.540344 71.020905
22 71.020905 -0.000179 0.000030 0.000318 -0.002326 -105.579170 71.020905
[L_front_hand02_02]
21 71.020927 -0.000119 0.000060 0.000317 -0.002326 -105.540344 71.020927
22 71.020927 -0.000119 0.000060 0.000318 -0.002326 -105.579170 71.020927
[L_front_hand03_02]
21 71.020905 -0.000060 0.000060 0.000317 -0.002326 -105.540344 71.020905
22 71.020905 -0.000060 0.000060 0.000318 -0.002326 -105.579170 71.020905
[R_forearm]
21 322.776428 -0.000060 0.000030 0.202103 0.065158 -108.062805 322.776428
22 322.776428 -0.000060 0.000030 0.202103 0.065158 -108.062805 322.776428
[R_front_hand]
21 238.847015 -0.006795 2.210259 -2.635298 -10.645461 -26.312506 238.857239
22 238.847015 -0.006795 2.210259 -2.635298 -10.645461 -26.312506 238.857239
[R_weapon_bone]
21 155.664093 0.002503 -0.000030 0.003487 0.001180 -90.988930 155.664078
22 155.664093 0.002503 -0.000030 0.003487 0.001180 -90.988930 155.664078
[R_front_hand01_01]
21 87.624611 14.231146 22.918642 -144.694336 -56.325737 50.060089 91.683487
22 87.624611 14.231146 22.918642 -146.552551 -57.155426 52.280727 91.683487
[R_front_hand02_01]
21 89.356956 14.367283 -19.491137 145.240677 54.711182 52.540722 92.579636
22 89.356956 14.367283 -19.491137 146.998062 55.533039 54.685249 92.579636
[R_front_hand03_01]
21 87.286232 -22.307278 -0.143439 0.105409 -0.441003 -68.629555 90.091743
22 87.286232 -22.307278 -0.143439 0.117983 -0.440813 -70.109169 90.091743
[R_front_hand01_02]
21 71.020905 0.000060 0.000119 0.002323 -0.000334 106.381714 71.020905
22 71.020905 0.000060 0.000119 0.002323 -0.000334 106.381714 71.020905
[R_front_hand02_02]
21 71.020844 -0.000030 -0.000119 0.002323 -0.000334 106.381714 71.020836
22 71.020844 -0.000030 -0.000119 0.002323 -0.000334 106.381714 71.020836
[R_front_hand03_02]
21 71.020905 0.000000 0.000030 0.002323 -0.000334 106.381714 71.020905
22 71.020905 0.000000 0.000030 0.002323 -0.000334 106.381714 71.020905
[null_rope01_connect]
21 328.732483 0.000000 -0.000238 -128.670853 -48.023045 -179.295349 328.732483
22 328.732483 0.000000 -0.000238 -128.833878 -49.657017 -179.840332 328.732483
[Rope1_Seg01]
21 -0.000008 -0.000015 0.000031 102.162033 -5.293649 -165.341034 0.000035
22 -0.000006 -0.000012 0.000024 103.693153 -5.073020 -168.113373 0.000028
[Rope1_Seg02]
21 139.999863 -0.000179 0.000000 16.206961 -13.750050 -14.163388 139.999863
22 139.999863 -0.000179 0.000000 14.816914 -14.257780 -13.480441 139.999863
[Rope1_Seg03]
21 139.999924 0.000060 -0.000060 23.861578 -25.975727 -20.146311 139.999924
22 139.999924 0.000060 -0.000060 21.758795 -25.253222 -19.909193 139.999924
[Rope1_Seg04]
21 139.999924 -0.000060 -0.000119 8.541259 -27.426435 -4.863062 139.999924
22 139.999924 -0.000060 -0.000119 7.736862 -28.251345 -4.478162 139.999924
[Rope1_Seg05]
21 139.999832 0.000119 -0.000060 -3.482672 -28.501686 9.885523 139.999832
22 139.999832 0.000119 -0.000060 -5.025252 -29.170803 12.226607 139.999832
[Rope1_Seg06]
21 139.999954 0.000119 -0.000060 -4.474461 -15.350538 4.156382 139.999954
22 139.999954 0.000119 -0.000060 -4.702989 -14.079229 4.169266 139.999954
[Rope1_Seg07]
21 139.999985 0.000060 0.000000 -3.151744 -7.378278 1.166759 139.999985
22 139.999985 0.000060 0.000000 -3.196146 -6.747242 1.206155 139.999985
[Rope1_Seg09]
21 121.602913 0.000119 -0.000089 -89.793175 -1.359789 0.847147 121.602913
22 121.602913 0.000119 -0.000089 -89.793175 -1.359789 0.847147 121.602913
[L_mid_hand01]
21 103.859421 1.038730 8.195221 130.544373 -67.584534 -38.866943 104.187431
22 103.859421 1.038730 8.195221 130.544357 -67.584518 -38.866943 104.187431
[L_mid_hand02]
21 105.572853 -4.139662 -10.864139 -168.923172 43.409309 -73.498886 106.211075
22 105.572853 -4.139662 -10.864139 -168.923172 43.409309 -73.498894 106.211075
[L_mid_hand03]
21 104.641464 17.579376 -3.913581 -6.012627 17.808178 74.893677 106.179977
22 104.641464 17.579376 -3.913581 -6.012625 17.808172 74.893669 106.179977
[null_rope02_connect]
21 328.732849 0.000179 -0.000119 -106.466309 44.113701 24.396397 328.732849
22 328.732849 0.000179 -0.000119 -107.923454 42.727558 23.119011 328.732849
[Rope2_Seg01]
21 -0.000107 0.000093 0.000000 -135.059723 45.165165 -32.600567 0.000142
22 -0.000116 0.000092 0.000000 -122.456139 41.749184 -27.751034 0.000148
[Rope2_Seg02]
21 139.999741 -0.000060 -0.000119 -6.126338 -4.295846 6.186779 139.999756
22 139.999741 -0.000060 -0.000119 -7.318803 -4.002074 6.643013 139.999756
[Rope2_Seg03]
21 140.000107 0.000030 0.000000 -6.533041 -8.546613 9.979192 140.000107
22 140.000107 0.000030 0.000000 -7.578098 -8.330224 10.650694 140.000107
[Rope2_Seg04]
21 139.999802 0.000000 -0.000060 -6.143200 -18.894907 16.074986 139.999802
22 139.999802 0.000000 -0.000060 -6.872249 -17.311680 16.485966 139.999802
[Rope2_Seg05]
21 139.999985 -0.000060 0.000119 -4.655469 -17.304356 20.886238 139.999985
22 139.999985 -0.000060 0.000119 -5.284963 -19.638693 21.251831 139.999985
[Rope2_Seg06]
21 139.999893 -0.000030 -0.000119 1.307029 -11.361618 18.971828 139.999893
22 139.999893 -0.000030 -0.000119 0.401561 -15.552465 18.425953 139.999893
[Rope2_Seg07]
21 139.999893 0.000060 -0.000060 3.315807 -7.258530 11.073386 139.999893
22 139.999893 0.000060 -0.000060 2.963735 -8.426225 9.911418 139.999893
[Rope2_Seg09]
21 121.338966 0.000089 -0.000060 33.793236 -1.359788 -0.847141 121.338966
22 121.338966 0.000089 -0.000060 33.793236 -1.359788 -0.847141 121.338966
[R_mid_hand01]
21 104.680779 11.144459 -10.335981 -16.212063 45.237247 70.462852 105.778534
22 104.680779 11.144459 -10.335981 -16.212063 45.237247 70.462852 105.778534
[R_mid_hand02]
21 104.070427 2.443552 8.231699 49.067368 -67.749771 39.286453 104.424065
22 104.070427 2.443552 8.231699 49.067368 -67.749771 39.286453 104.424065
[R_mid_hand03]
21 106.028137 -11.221827 -5.996406 -177.101105 15.551026 -76.585571 106.788818
22 106.028137 -11.221827 -5.996406 -177.101105 15.551026 -76.585571 106.788818
[spine02]
21 129.756927 0.001550 0.000119 0.360061 -4.044797 -12.915058 129.756927
22 129.756927 0.001550 0.000119 0.360061 -4.044797 -12.915058 129.756927
[spine03]
21 78.614067 0.081635 -4.899014 1.896495 3.831288 16.473045 78.766602
22 78.614067 0.081635 -4.899014 1.896495 3.831288 16.473045 78.766602
[pelvis]
21 169.435242 0.051022 0.000000 -0.060465 -0.180225 14.087930 169.435257
22 169.435242 0.051022 0.000000 -0.060465 -0.180225 14.087930 169.435257
[null_rope03_connect]
21 -1.257226 -2.466202 137.391083 -160.851822 -84.411949 -118.883156 137.418976
22 -1.257226 -2.466202 137.391083 -169.533249 -85.937408 -110.748840 137.418976
[null_rope04_connect]
21 -1.259640 -2.480268 -137.844437 -160.851822 -84.411949 -118.883156 137.872513
22 -1.259640 -2.480268 -137.844437 -169.533249 -85.937408 -110.748840 137.872513
[Rope3_Seg01]
21 0.000010 0.000038 -0.000114 -127.843040 -24.683752 -87.987320 0.000121
22 0.000010 0.000038 -0.000114 -132.873611 -36.044888 -79.023994 0.000121
[Rope3_Seg02]
21 139.999924 -0.000119 0.000060 5.140562 -18.947105 -25.252020 139.999924
22 139.999924 -0.000119 0.000060 6.037021 -19.069002 -19.859209 139.999924
[Rope3_Seg03]
21 139.999924 -0.000119 0.000119 -2.284095 -2.851785 -10.973183 139.999924
22 139.999924 -0.000119 0.000119 -1.196101 -2.988701 -7.676407 139.999924
[Rope3_Seg04]
21 139.999924 0.000119 0.000000 10.423179 -13.030246 -1.076976 139.999924
22 139.999924 0.000119 0.000000 9.838341 -11.341203 -1.735825 139.999924
[Rope3_Seg05]
21 139.999924 -0.000238 0.000060 24.054476 -21.881474 7.524684 139.999924
22 139.999924 -0.000238 0.000060 28.794674 -22.715036 4.770782 139.999924
[Rope3_Seg06]
21 139.999893 -0.000119 -0.000060 12.932388 -9.896654 8.545474 139.999893
22 139.999893 -0.000119 -0.000060 18.241713 -12.145362 10.058684 139.999893
[Rope3_Seg07]
21 139.999771 0.000060 -0.000119 6.994292 -4.704924 6.189021 139.999771
22 139.999771 0.000060 -0.000119 9.062696 -5.125797 8.005424 139.999771
[Rope3_Seg08]
21 139.999985 -0.000060 0.000000 3.932800 -2.287982 3.947942 139.999985
22 139.999985 -0.000060 0.000000 4.673967 -2.192811 5.082459 139.999985
[Rope3_Seg09]
21 90.185997 -0.000179 -0.000060 89.793228 -1.359877 -0.847183 90.185997
22 90.185997 -0.000179 -0.000060 89.793228 -1.359877 -0.847183 90.185997
[R_rear_hand01]
21 103.366196 -6.073594 -10.757982 -177.714203 24.565960 -73.910950 104.101845
22 103.366196 -6.073594 -10.757982 -177.714203 24.565960 -73.910950 104.101845
[R_rear_hand02]
21 100.509819 12.039542 -7.992327 -12.874833 36.868500 72.167229 101.543350
22 100.509819 12.039542 -7.992327 -12.874829 36.868488 72.167213 101.543350
[R_rear_hand03]
21 101.539970 5.215704 5.435467 71.484627 -71.816643 21.513817 101.819031
22 101.539970 5.215704 5.435467 71.484581 -71.816628 21.513813 101.819031
[Rope4_Seg01]
21 0.000010 0.000008 -0.000031 68.689903 -30.342936 -138.713898 0.000033
22 0.000010 0.000006 -0.000024 73.717812 -34.877228 -140.755951 0.000027
[Rope4_Seg02]
21 139.999985 0.000060 0.000119 -13.718847 13.966167 -13.696651 139.999985
22 139.999985 0.000060 0.000119 -14.610362 10.444122 -14.633112 139.999985
[Rope4_Seg03]
21 139.999924 0.000000 -0.000238 -10.067417 22.606915 -12.366797 139.999924
22 139.999924 0.000000 -0.000238 -15.648644 23.040741 -17.996769 139.999924
[Rope4_Seg04]
21 139.999985 0.000000 0.000119 -1.769147 16.578119 -4.530787 139.999985
22 139.999985 0.000000 0.000119 -3.673582 20.615133 -6.936291 139.999985
[Rope4_Seg05]
21 139.999802 -0.000060 -0.000119 -0.476960 17.733648 -16.699369 139.999802
22 139.999802 -0.000060 -0.000119 -2.136590 15.837889 -20.872000 139.999802
[Rope4_Seg06]
21 139.999924 0.000000 0.000060 2.775929 24.586462 -33.096474 139.999924
22 139.999924 0.000000 0.000060 -3.843658 21.965338 -45.282867 139.999924
[Rope4_Seg07]
21 139.999802 0.000000 0.000000 4.733118 9.481593 -14.824067 139.999802
22 139.999802 0.000000 0.000000 1.275950 8.810021 -16.461676 139.999802
[Rope4_Seg08]
21 139.999924 0.000000 0.000119 0.960284 3.401496 -6.598941 139.999924
22 139.999924 0.000000 0.000119 -0.640579 3.107088 -6.317149 139.999924
[Rope4_Seg09]
21 90.185791 0.000060 0.000060 -135.617828 2.228885 0.850567 90.185791
22 90.185791 0.000060 0.000060 -135.617828 2.228885 0.850567 90.185791
[L_rear_hand01]
21 101.696655 -8.392275 -7.654577 -12.874829 -36.868488 107.832764 102.329041
22 101.696655 -8.392275 -7.654577 -12.874829 -36.868488 107.832764 102.329041
[L_rear_hand02]
21 102.726799 -1.568258 5.773216 71.484581 71.816628 158.486160 102.900848
22 102.726799 -1.568258 5.773216 71.484573 71.816597 158.486160 102.900848
[L_rear_hand03]
21 104.552910 9.721220 -10.420293 -177.714203 -24.565960 -106.089035 105.519653
22 104.552910 9.721220 -10.420293 -177.714203 -24.565960 -106.089035 105.519653
